<?xml version="1.0" encoding="UTF-8" standalone="no"?><!DOCTYPE svg PUBLIC "-//W3C//DTD SVG 1.1//EN" "http://www.w3.org/Graphics/SVG/1.1/DTD/svg11.dtd"><svg width="100%" height="100%" viewBox="0 0 350 200" version="1.1" xmlns="http://www.w3.org/2000/svg" xmlns:xlink="http://www.w3.org/1999/xlink" xml:space="preserve" xmlns:serif="http://www.serif.com/" style="fill-rule:evenodd;clip-rule:evenodd;stroke-linejoin:round;stroke-miterlimit:2;"><g id="Layer_2"><g id="svg2"><rect x="0" y="0" width="350" height="200" style="fill:none;"/><path id="path6" d="M122.57,20.48l0.07,0c6.78,6.78 13.59,13.52 20.36,20.36c-3,3.11 -6.15,6.16 -9.21,9.24l-11.11,11.09c-0.089,-0.098 -0.209,-0.161 -0.34,-0.18c-0.78,-0.68 -1.48,-1.46 -2.22,-2.18l-17.82,-17.81c-0.17,-0.12 0,-0.28 0.08,-0.38c5.293,-5.267 10.573,-10.547 15.84,-15.84c1.5,-1.39 2.9,-2.87 4.35,-4.3Z" style="fill:#bbbcc1;fill-rule:nonzero;"/><path id="path8" d="M170.54,20.48l0.06,0c4.84,4.72 9.59,9.52 14.4,14.33c1.91,1.93 3.88,3.8 5.74,5.78l-20.39,20.41c-0.268,-0.224 -0.525,-0.461 -0.77,-0.71c-6.39,-6.34 -12.72,-12.73 -19.1,-19.07c-0.09,-0.12 -0.33,-0.27 -0.18,-0.44c6.7,-6.78 13.51,-13.53 20.24,-20.3Z" style="fill:#bbbcc1;fill-rule:nonzero;"/><path id="path10" d="M218.57,20.48l0.07,0c5.753,5.76 11.51,11.513 17.27,17.26c1,1 2,1.92 2.9,3c-6.69,6.69 -13.4,13.36 -20.06,20.08c-1.65,-1.54 -3.19,-3.18 -4.8,-4.75l-15.39,-15.4c0.182,-0.365 0.445,-0.683 0.77,-0.93l19.24,-19.26Z" style="fill:#bbbcc1;fill-rule:nonzero;"/><path id="path12" d="M50.25,44.45c0.14,-0.2 0.32,0 0.44,0.11c4.33,4.37 8.72,8.7 13.08,13.06c1.4,1.44 2.87,2.8 4.23,4.28l-33.25,0l0,-1.55l-0.29,0c0.247,-0.323 0.521,-0.624 0.82,-0.9l14.97,-15Z" style="fill:#bbbcc1;fill-rule:nonzero;"/><path id="path14" d="M98.2,44.47c0.12,-0.17 0.34,-0.09 0.45,0.05c6.667,6.667 13.363,13.363 20.09,20.09c-6.72,6.72 -13.443,13.44 -20.17,20.16c-6.78,-6.813 -13.573,-13.613 -20.38,-20.4l0.28,-0.17c6.573,-6.58 13.15,-13.157 19.73,-19.73Z" style="fill:#bbbcc1;fill-rule:nonzero;"/><path id="path16" d="M145.75,45c0.22,-0.2 0.39,-0.49 0.68,-0.59c0.259,0.167 0.492,0.373 0.69,0.61l11.66,11.65c2.63,2.67 5.32,5.27 7.92,8c-6.76,6.76 -13.52,13.517 -20.28,20.27c-3.58,-3.55 -7.13,-7.13 -10.7,-10.69c-3.16,-3.19 -6.38,-6.3 -9.53,-9.49c0.043,-0.169 0.129,-0.324 0.25,-0.45c6.45,-6.49 12.86,-12.94 19.31,-19.31Z" style="fill:#bbbcc1;fill-rule:nonzero;"/><path id="path18" d="M274.25,60.78c5.51,-5.49 11,-11 16.52,-16.48l13.83,13.82c0.72,0.76 1.52,1.45 2.2,2.25l-1.16,0l0,1.78l-32.66,0c0.37,-0.5 0.83,-0.92 1.27,-1.37Z" style="fill:#bbbcc1;fill-rule:nonzero;"/><path id="path20" d="M194.35,45c0.12,-0.21 0.29,0 0.39,0.1l19.82,19.9c-6.66,6.74 -13.41,13.4 -20.09,20.13c-0.622,-0.536 -1.216,-1.103 -1.78,-1.7l-15.48,-15.54c-0.94,-1 -2,-1.86 -2.83,-2.89c6.66,-6.667 13.317,-13.333 19.97,-20Z" style="fill:#bbbcc1;fill-rule:nonzero;"/><path id="path22" d="M236.48,50.85c2,-2 4,-4 6,-5.93c0.62,0.5 1.14,1.13 1.72,1.68l18.35,18.4c-6.433,6.46 -12.877,12.91 -19.33,19.35c-0.251,0.295 -0.544,0.551 -0.87,0.76c-1.1,-1.18 -2.27,-2.29 -3.4,-3.44c-5.54,-5.56 -11.11,-11.08 -16.64,-16.66c4.69,-4.73 9.43,-9.46 14.17,-14.16Z" style="fill:#bbbcc1;fill-rule:nonzero;"/><path id="path24" d="M34.75,67.4l33.25,0c-0.137,0.202 -0.295,0.39 -0.47,0.56l-13.21,13.22c-1.32,1.3 -2.6,2.66 -4,3.92c-4.8,-4.84 -9.64,-9.64 -14.45,-14.47c-0.417,-0.38 -0.805,-0.791 -1.16,-1.23c0.06,-0.67 0.04,-1.33 0.04,-2Z" style="fill:#bbbcc1;fill-rule:nonzero;"/><path id="path26" d="M273.51,67.78l32.12,0l0,1.61l0.73,0c-0.33,0.426 -0.698,0.821 -1.1,1.18l-9.47,9.47c-1.7,1.67 -3.34,3.41 -5.09,5c-5.087,-5.1 -10.187,-10.2 -15.3,-15.3c-0.672,-0.612 -1.303,-1.267 -1.89,-1.96Z" style="fill:#bbbcc1;fill-rule:nonzero;"/><path id="path28" d="M218.48,68.84l0.27,-0.29c2.73,2.76 5.52,5.46 8.26,8.21c4,4 8,8 12,12c-0.88,1.07 -2,1.94 -2.94,2.94l-12.37,12.38c-1.72,1.68 -3.38,3.44 -5.13,5.08c-5.047,-5.033 -10.107,-10.087 -15.18,-15.16c-1.74,-1.72 -3.43,-3.49 -5.21,-5.17c0.92,-1.08 2,-2 3,-3c5.72,-5.7 11.41,-11.43 17.14,-17.12l0.16,0.13Z" style="fill:#bbbcc1;fill-rule:nonzero;"/><path id="path30" d="M150.39,89c6.793,-6.78 13.58,-13.567 20.36,-20.36c1,0.82 1.83,1.8 2.76,2.68l17.49,17.47c-6.793,6.807 -13.593,13.607 -20.4,20.4c-1.86,-1.79 -3.65,-3.65 -5.48,-5.45c-4.91,-4.92 -9.83,-9.82 -14.73,-14.74Z" style="fill:#bbbcc1;fill-rule:nonzero;"/><path id="path32" d="M102.42,89l20.15,-20.15l20.18,20.15c-5.62,5.64 -11.25,11.273 -16.89,16.9c-1.11,1.07 -2.15,2.22 -3.29,3.25c-5.48,-5.43 -10.91,-10.91 -16.37,-16.35c-1.2,-1.26 -2.57,-2.48 -3.78,-3.8Z" style="fill:#bbbcc1;fill-rule:nonzero;"/><path id="path35" d="M194.58,36.7c1.36,1.28 2.65,2.64 4,3.94l15.42,15.36c1.61,1.57 3.15,3.21 4.8,4.75c6.66,-6.72 13.37,-13.39 20.06,-20.08c1.26,-1.24 2.49,-2.51 3.76,-3.74c8.4,8.39 16.79,16.81 25.22,25.17l37.82,0l0,-1.78l9.75,0l0,9l-9.73,0l0,-1.54l-40.33,0c-0.93,-0.93 -1.86,-1.87 -2.8,-2.8l-18.39,-18.38c-0.58,-0.55 -1.1,-1.18 -1.72,-1.68c-2,1.95 -4,4 -6,5.93c-4.74,4.7 -9.44,9.43 -14.17,14.14l-3.56,3.56l-0.27,0.29l-0.18,-0.16l-3.7,-3.68l-19.82,-19.88c-0.1,-0.1 -0.27,-0.31 -0.39,-0.1c-6.667,6.667 -13.333,13.333 -20,20c-1.22,1.2 -2.43,2.41 -3.63,3.63c-6.767,6.78 -13.543,13.563 -20.33,20.35c-1.29,1.27 -2.55,2.56 -3.84,3.82l-3.8,-3.82l-20.18,-20.15l-20.15,20.15c-1.25,1.22 -2.46,2.48 -3.72,3.69c-8.42,-8.46 -16.84,-16.887 -25.26,-25.28l-38.69,0l-0,2l-9.75,0l-0,-9l8.34,0c0.366,0.035 0.734,0.035 1.1,0l0.29,0c0.05,0.52 -0,1 -0,1.55l41,0c0.82,0.83 1.65,1.64 2.47,2.47c6.8,6.787 13.593,13.587 20.38,20.4c6.727,-6.707 13.45,-13.427 20.17,-20.16c1.2,-1.21 2.42,-2.39 3.6,-3.62c0.131,0.019 0.251,0.082 0.34,0.18c1.16,1.19 2.34,2.35 3.51,3.52c3.15,3.19 6.37,6.3 9.53,9.49c3.57,3.56 7.12,7.14 10.7,10.69c6.76,-6.78 13.517,-13.557 20.27,-20.33l3.65,-3.6l20.37,-20.37c1.29,-1.29 2.6,-2.57 3.86,-3.89m-0,1.31c-1.76,1.84 -3.59,3.6 -5.38,5.42c-14.267,14.213 -28.53,28.45 -42.79,42.71c-8,-8 -16,-16 -24,-24c-7.927,7.96 -15.863,15.923 -23.81,23.89c-2.47,-2.41 -4.88,-4.88 -7.33,-7.31l-12.79,-12.76c-1.08,-1.06 -2.11,-2.16 -3.22,-3.17l-40.49,0l-0,3.69l38.31,0c0.27,0 0.61,-0.1 0.83,0.1l24.81,24.78c7.907,-7.933 15.827,-15.853 23.76,-23.76l0.15,0l14.07,14.03c3.26,3.28 6.57,6.52 9.79,9.83c0.275,-0.193 0.527,-0.418 0.75,-0.67c15.753,-15.747 31.507,-31.497 47.26,-47.25c8,8 16,16 24,24c2.17,-2.27 4.46,-4.43 6.67,-6.67l17.2,-17.2c0.33,-0.11 0.51,0.42 0.78,0.58c7.54,7.533 15.08,15.07 22.62,22.61l39.88,0l-0,-3.9l-38.31,0c-7.58,-7.65 -15.24,-15.22 -22.85,-22.83c-0.67,-0.63 -1.27,-1.35 -2,-1.93c-0.289,0.355 -0.603,0.689 -0.94,1c-7.59,7.62 -15.22,15.2 -22.79,22.82c-0.235,-0.125 -0.442,-0.294 -0.61,-0.5l-18.43,-18.45c-1.72,-1.69 -3.39,-3.44 -5.15,-5.11l0.01,0.05Z" style="fill:#221e1f;fill-rule:nonzero;"/><path id="path37" d="M314.31,148.78c0.814,-2.148 2.883,-3.577 5.181,-3.577c2.82,-0 5.212,2.153 5.509,4.957l0,1.19c-0.314,2.794 -2.704,4.93 -5.515,4.93c-1.772,0 -3.441,-0.848 -4.485,-2.28c-1.104,-1.502 -1.375,-3.465 -0.72,-5.21m4.26,-2.38c-2.054,0.415 -3.544,2.237 -3.544,4.332c-0,2.425 1.995,4.42 4.42,4.42c1.383,0 2.689,-0.649 3.524,-1.752c0.581,-0.768 0.896,-1.705 0.896,-2.668c-0,-2.424 -1.995,-4.42 -4.42,-4.42c-0.294,0 -0.588,0.03 -0.876,0.088Z" style="fill:#fff;fill-rule:nonzero;"/><path id="path39" d="M33.51,145.56l12,0l0,34l-12,0c0.013,-11.347 0.013,-22.68 0,-34Z" style="fill:#fff;fill-rule:nonzero;"/><path id="path41" d="M107.39,145.55l25.48,0l0,7.22l-13.53,0l0,5.94l12.41,0l0,7.17l-12.4,0l0,6.45l13.76,0l0,7.17l-25.72,0c-0.007,-11.307 -0.007,-22.623 0,-33.95Z" style="fill:#fff;fill-rule:nonzero;"/><path id="path43" d="M191.5,145.56l33.19,0l0,8.56l-10.64,0l0,25.41l-11.91,0l-0,-25.41l-10.63,0c-0.01,-2.86 -0,-5.71 -0.01,-8.56Z" style="fill:#fff;fill-rule:nonzero;"/><path id="path45" d="M284.25,145.55l24.85,0l0,7.22l-12.89,0l0,6.1l12.13,0l0,7.21l-12.13,0l0,13.42l-11.96,0l-0,-33.95Z" style="fill:#fff;fill-rule:nonzero;"/><path id="path47" d="M317,147.78l3.08,0c0.035,-0.002 0.069,-0.003 0.104,-0.003c0.894,-0 1.63,0.735 1.63,1.63c0,0.195 -0.035,0.39 -0.104,0.573c-0.226,0.632 -0.84,1.046 -1.51,1.02c0.66,0.3 1,1 1.32,1.57c0.2,0.36 0.44,0.7 0.61,1.08l-1.51,-0c-0.336,-0.803 -0.806,-1.544 -1.39,-2.19c-0.296,-0.191 -0.652,-0.266 -1,-0.21l0,2.4c-0.413,0.025 -0.827,0.025 -1.24,-0l0,-5.88m1.25,0.95l0,1.56c0.627,0.059 1.259,0.012 1.87,-0.14c0.245,-0.121 0.4,-0.372 0.4,-0.645c-0,-0.244 -0.125,-0.473 -0.33,-0.605c-0.635,-0.172 -1.296,-0.226 -1.95,-0.16l0.01,-0.01Z" style="fill:#fff;fill-rule:nonzero;"/><path id="path50" d="M194.57,38c1.76,1.66 3.43,3.41 5.15,5.1l18.45,18.46c0.168,0.206 0.375,0.375 0.61,0.5c7.57,-7.62 15.2,-15.2 22.79,-22.82c0.337,-0.311 0.651,-0.645 0.94,-1c0.71,0.58 1.31,1.3 2,1.93c7.61,7.61 15.27,15.18 22.85,22.83l38.29,0l0,3.83l-39.88,0c-7.553,-7.533 -15.093,-15.07 -22.62,-22.61c-0.27,-0.16 -0.45,-0.69 -0.78,-0.58l-17.2,17.2c-2.21,2.24 -4.5,4.4 -6.67,6.67c-8,-8 -16,-16 -24,-24c-15.773,15.74 -31.527,31.49 -47.26,47.25c-0.223,0.252 -0.475,0.477 -0.75,0.67c-3.22,-3.31 -6.53,-6.55 -9.79,-9.83l-14.07,-14l-0.15,-0c-7.92,7.94 -15.84,15.873 -23.76,23.8l-24.83,-24.82c-0.22,-0.2 -0.56,-0.06 -0.83,-0.1l-38.31,-0l-0,-3.69l40.49,-0c1.11,1 2.14,2.11 3.22,3.17l12.81,12.8c2.45,2.43 4.86,4.9 7.33,7.31c7.953,-7.96 15.907,-15.91 23.86,-23.85c8,8 16,16 24,24c14.287,-14.227 28.547,-28.477 42.78,-42.75c1.76,-1.86 3.57,-3.62 5.33,-5.47Z" style="fill:#fdd34f;fill-rule:nonzero;"/></g></g></svg>